<?xml version="1.0" standalone="no"?>
<!DOCTYPE svg PUBLIC "-//W3C//DTD SVG 20010904//EN"
 "http://www.w3.org/TR/2001/REC-SVG-20010904/DTD/svg10.dtd">
<svg version="1.0" xmlns="http://www.w3.org/2000/svg"
 width="226.000000pt" height="223.000000pt" viewBox="0 0 226.000000 223.000000"
 preserveAspectRatio="xMidYMid meet">

<g transform="translate(0.000000,223.000000) scale(0.100000,-0.100000)"
fill="#000000" stroke="none">
<path d="M1010 2185 c-142 -43 -240 -85 -346 -148 -238 -141 -431 -308 -602
-520 l-54 -67 5 -183 c4 -152 9 -198 30 -277 38 -147 104 -325 160 -435 44
-85 221 -365 231 -365 2 0 61 -18 130 -39 195 -61 289 -74 526 -75 228 -1 349
14 555 65 171 42 176 45 215 96 19 26 58 78 87 116 172 228 303 663 303 1004
l0 92 -76 100 c-211 279 -565 517 -963 647 -40 13 -79 24 -85 23 -6 -1 -58
-16 -116 -34z m230 -35 c391 -139 700 -352 907 -624 l76 -100 -12 -158 c-15
-191 -45 -341 -104 -513 -59 -175 -120 -292 -219 -424 -92 -123 -80 -115 -258
-160 -176 -43 -262 -54 -481 -58 -169 -4 -240 -2 -330 12 -125 18 -356 88
-376 114 -7 9 -45 63 -84 121 -100 148 -180 315 -238 494 -61 187 -84 332 -79
481 l4 106 75 90 c74 91 206 224 289 290 92 74 273 191 370 239 55 28 153 66
217 85 65 20 119 38 122 40 6 7 -1 9 121 -35z"/>
<path d="M1087 1963 c-13 -12 -7 -23 13 -23 17 0 20 -7 20 -39 0 -24 5 -41 14
-44 20 -8 26 2 26 45 0 28 4 38 16 38 9 0 14 6 12 13 -5 13 -90 22 -101 10z"/>
<path d="M1024 1929 c3 -17 6 -42 6 -55 0 -16 6 -24 18 -24 14 0 17 8 14 55
-3 48 -7 55 -24 55 -18 0 -20 -4 -14 -31z"/>
<path d="M1219 1912 c-16 -25 -26 -49 -23 -53 7 -12 34 -11 34 1 0 14 16 12
32 -3 7 -7 21 -16 31 -20 15 -6 16 -2 11 36 -15 98 -40 109 -85 39z m46 -12
c3 -5 1 -10 -4 -10 -6 0 -11 5 -11 10 0 6 2 10 4 10 3 0 8 -4 11 -10z"/>
<path d="M909 1931 c-20 -16 -21 -21 -10 -35 7 -9 24 -16 37 -16 12 0 26 -5
30 -12 5 -8 0 -9 -15 -5 -33 8 -55 -2 -40 -19 14 -17 43 -18 70 -4 23 13 24
37 2 62 -11 13 -12 18 -3 18 10 0 10 3 0 15 -17 20 -43 19 -71 -4z m48 -17
c-3 -3 -12 -4 -19 -1 -8 3 -5 6 6 6 11 1 17 -2 13 -5z"/>
<path d="M1358 1919 c-25 -14 -22 -36 7 -55 14 -9 22 -21 18 -27 -4 -6 -11 -4
-18 6 -13 18 -45 23 -45 8 0 -15 42 -41 66 -41 32 0 51 27 36 51 -10 16 -9 19
3 19 32 0 10 32 -30 43 -11 4 -28 2 -37 -4z m42 -29 c0 -5 -2 -10 -4 -10 -3 0
-8 5 -11 10 -3 6 -1 10 4 10 6 0 11 -4 11 -10z"/>
<path d="M803 1907 c-46 -17 -47 -21 -28 -72 13 -32 23 -45 34 -43 10 3 15 12
13 27 -2 23 -2 23 23 7 16 -11 31 -14 41 -8 13 7 12 11 -5 26 -11 10 -17 24
-14 32 5 14 -13 45 -26 43 -3 0 -20 -6 -38 -12z m27 -25 c0 -13 -12 -22 -22
-16 -10 6 -1 24 13 24 5 0 9 -4 9 -8z"/>
<path d="M678 1849 c-21 -11 -38 -22 -38 -24 0 -5 47 -84 56 -94 2 -2 62 30
83 45 1 2 0 8 -4 14 -5 8 -14 6 -32 -5 -33 -22 -44 -9 -13 15 28 21 19 41 -10
22 -24 -14 -30 -15 -30 -3 0 5 9 13 20 16 11 3 20 13 20 21 0 18 -7 17 -52 -7z"/>
<path d="M1550 1802 c-18 -27 -25 -33 -28 -20 -4 22 -29 30 -36 12 -6 -16 27
-54 47 -54 19 0 31 12 55 51 20 32 20 37 6 43 -8 3 -16 6 -17 6 -1 0 -13 -17
-27 -38z"/>
<path d="M594 1796 c-4 -9 -1 -29 5 -43 15 -33 9 -38 -23 -18 -24 16 -56 15
-56 -2 0 -4 21 -18 45 -30 78 -40 96 -28 69 45 -22 59 -31 70 -40 48z"/>
<path d="M1602 1753 c-34 -20 -40 -28 -31 -39 6 -8 15 -12 19 -9 13 8 40 -6
40 -20 0 -7 7 -18 14 -25 13 -10 18 -3 31 44 24 83 5 96 -73 49z m48 -23 c0
-5 -4 -10 -10 -10 -5 0 -10 5 -10 10 0 6 5 10 10 10 6 0 10 -4 10 -10z"/>
<path d="M484 1699 c-3 -6 11 -28 32 -50 29 -30 41 -36 51 -27 11 9 7 18 -24
50 -39 40 -48 44 -59 27z"/>
<path d="M1705 1677 c-25 -22 -36 -38 -31 -46 6 -9 14 -7 32 10 27 25 33 15 7
-13 -13 -15 -14 -21 -4 -31 9 -9 19 -8 44 6 l32 17 -26 -23 c-17 -16 -24 -29
-19 -37 6 -10 20 -3 54 25 38 31 44 40 34 52 -8 10 -22 13 -40 9 -26 -5 -28
-4 -18 15 9 15 8 24 -1 35 -16 20 -21 18 -64 -19z"/>
<path d="M435 1649 c-4 -6 1 -19 11 -30 17 -18 16 -19 -13 -19 -17 0 -36 -6
-42 -14 -10 -11 -3 -20 35 -46 35 -23 50 -28 58 -20 8 8 5 17 -13 31 l-23 19
40 0 c66 0 60 22 -20 73 -18 11 -29 13 -33 6z"/>
<path d="M1080 1600 c-21 -21 -27 -65 -10 -75 6 -4 3 -16 -10 -32 -24 -31 -25
-49 -5 -96 9 -22 15 -67 15 -114 l-1 -78 -42 -20 c-44 -21 -49 -34 -32 -85 4
-14 -11 0 -37 35 -74 99 -149 161 -225 185 -86 26 -135 25 -240 -6 -65 -19
-102 -24 -140 -21 -29 3 -55 2 -57 -2 -3 -4 6 -38 20 -77 13 -38 24 -70 24
-72 0 -2 33 -36 72 -75 l73 -72 58 2 c38 2 72 -3 95 -14 21 -9 73 -19 117 -22
l80 -6 -3 -34 c-1 -21 4 -41 15 -54 15 -17 16 -21 3 -25 -35 -12 -70 -60 -70
-95 0 -38 40 -97 66 -97 8 0 14 -6 14 -14 0 -8 16 -37 35 -65 19 -28 35 -53
35 -56 0 -3 -13 -5 -30 -5 -16 0 -30 -4 -30 -10 0 -14 67 -54 124 -73 67 -23
80 -22 66 2 -5 11 -10 22 -10 24 0 2 31 4 70 3 69 -1 83 -9 58 -34 -22 -22 -2
-22 60 -1 65 22 125 57 126 74 1 5 -12 12 -28 15 -27 5 -28 6 -11 20 10 8 27
34 37 57 11 25 32 49 52 61 47 28 63 78 41 126 -10 20 -30 41 -46 48 -34 15
-34 16 -14 46 10 13 15 37 13 59 l-3 37 77 -2 c61 -3 85 1 116 17 30 15 56 20
101 18 l60 -2 56 55 c30 30 55 58 55 63 0 5 11 23 23 40 28 37 61 123 53 135
-3 5 -28 7 -55 4 -35 -3 -77 4 -146 23 -106 30 -168 30 -257 -1 -48 -16 -170
-123 -215 -188 l-21 -30 2 38 c1 36 -2 40 -34 51 l-35 12 -3 82 c-2 58 2 96
13 125 13 35 14 47 4 71 -7 17 -11 49 -10 71 2 34 -2 45 -20 58 -31 22 -65 20
-89 -4z m76 -8 c40 -27 15 -75 -36 -70 -28 2 -36 8 -38 26 -6 41 39 68 74 44z
m18 -108 c20 -19 20 -52 0 -84 -8 -14 -13 -17 -10 -7 7 24 -11 22 -24 -3 -10
-18 -7 -24 13 -21 4 0 7 -3 7 -9 0 -5 -15 -10 -34 -10 -30 0 -36 4 -50 40 -9
22 -16 49 -16 59 0 30 28 51 65 51 18 0 41 -7 49 -16z m-44 -164 c0 -11 5 -20
11 -20 6 0 9 7 5 15 -3 8 -1 15 4 15 19 0 10 -49 -11 -61 -17 -9 -25 -8 -38 6
-15 15 -15 17 1 26 10 5 15 16 12 24 -4 8 -1 15 5 15 6 0 11 -9 11 -20z m-402
-15 c97 -29 218 -155 293 -304 35 -73 36 -98 4 -161 -14 -27 -25 -56 -25 -65
0 -19 -34 -20 -49 -1 -8 10 -3 23 23 57 45 59 49 79 30 125 -48 116 -164 253
-247 293 -92 45 -158 46 -305 5 -46 -13 -72 -15 -99 -8 -56 14 -53 32 4 27 34
-3 70 3 123 20 88 29 175 33 248 12z m1030 -11 c59 -18 99 -25 129 -21 51 5
55 -12 5 -27 -24 -7 -59 -2 -146 19 -114 28 -114 28 -183 11 -81 -20 -109 -37
-181 -108 -55 -54 -107 -132 -142 -211 -22 -49 -17 -80 15 -107 22 -19 47 -68
40 -80 -3 -6 -17 -10 -31 -10 -17 0 -24 5 -24 19 0 11 -11 41 -25 67 -14 26
-25 58 -25 71 0 73 152 284 259 359 70 49 184 56 309 18z m-1041 -46 c77 -28
175 -122 232 -223 40 -69 47 -96 23 -81 -5 3 -29 38 -52 78 -73 126 -144 186
-246 213 -51 13 -65 13 -128 -1 -102 -23 -180 -28 -202 -14 -16 10 -14 11 16
7 20 -2 70 6 115 18 103 30 169 31 242 3z m1052 -3 c54 -14 104 -22 119 -18
17 4 23 2 18 -6 -11 -17 -95 -13 -189 9 -98 23 -147 18 -228 -27 -63 -34 -103
-77 -164 -175 -50 -82 -85 -116 -65 -64 28 73 126 199 193 248 41 30 126 57
177 57 25 1 87 -10 139 -24z m-603 -95 c3 -57 10 -118 15 -134 9 -31 2 -76
-12 -76 -4 0 -8 12 -8 28 -1 30 -6 84 -10 92 -2 3 -4 30 -5 61 -2 31 -6 62
-11 69 -12 20 -35 -57 -31 -107 2 -24 -1 -46 -5 -49 -5 -3 -7 -15 -3 -28 3
-15 -2 -28 -17 -41 l-22 -20 7 40 c16 88 25 173 26 220 l0 50 34 0 34 0 8
-105z m-464 60 c75 -28 123 -71 184 -167 30 -45 54 -86 54 -89 0 -16 -37 27
-77 88 -91 141 -200 189 -351 154 -78 -18 -158 -21 -166 -7 -4 5 10 7 31 4 21
-2 74 5 118 16 103 25 142 26 207 1z m1037 -1 c49 -12 102 -19 124 -16 20 3
37 1 37 -4 0 -19 -58 -21 -149 -5 -114 19 -143 20 -190 4 -67 -23 -121 -68
-177 -148 -53 -76 -71 -96 -79 -88 -2 2 19 40 46 85 55 91 113 145 186 173 62
25 97 24 202 -1z m-996 -62 c41 -26 71 -58 106 -112 28 -41 46 -75 41 -75 -5
0 -27 27 -49 59 -49 72 -110 125 -169 148 -39 15 -54 15 -126 5 -109 -16 -160
-14 -76 3 36 7 99 12 141 12 70 -2 80 -5 132 -40z m1000 22 c26 -5 66 -9 87
-9 41 0 54 -14 22 -24 -10 -3 -62 0 -116 8 -102 14 -153 9 -205 -19 -24 -13
-41 -31 -120 -125 -17 -19 -33 -31 -37 -27 -18 18 78 138 143 178 57 36 112
40 226 18z m-674 -26 c0 -21 -4 -58 -8 -83 -6 -35 -9 -41 -15 -25 -4 11 -17
37 -28 58 -28 53 -15 81 40 86 8 1 12 -12 11 -36z m170 13 c6 -7 0 -30 -18
-68 l-28 -57 -6 67 c-3 37 -3 70 -1 74 6 9 41 -2 53 -16z m-844 4 c8 -13 -5
-13 -25 0 -13 8 -13 10 2 10 9 0 20 -4 23 -10z m310 -30 c49 -26 153 -145 140
-158 -3 -4 -18 9 -32 28 -50 65 -118 125 -156 137 -31 9 -57 9 -125 -2 -103
-17 -152 -19 -152 -5 0 6 19 10 43 11 23 0 74 6 112 13 83 16 104 13 170 -24z
m1036 -1 c100 -12 116 -17 103 -28 -5 -5 -50 -3 -104 5 -129 20 -162 11 -237
-67 -31 -33 -60 -59 -65 -59 -38 0 80 125 137 145 49 17 61 18 166 4z m-1065
-15 c33 -16 132 -120 122 -129 -2 -2 -29 22 -60 54 -80 82 -119 91 -253 61
-54 -13 -85 -12 -85 1 0 6 8 8 18 5 9 -3 44 1 77 8 83 19 141 19 181 0z m460
-65 c4 -29 6 -66 6 -80 -1 -15 8 -35 18 -44 11 -10 20 -27 20 -37 0 -11 8 -36
19 -56 10 -20 26 -55 36 -77 35 -82 41 -90 81 -110 38 -18 41 -22 32 -45 -13
-35 -56 -78 -103 -103 -31 -17 -57 -22 -115 -21 -64 0 -83 4 -130 29 -47 26
-120 101 -120 124 0 5 20 16 43 25 37 14 49 25 70 69 15 29 27 58 27 64 0 7
11 33 25 59 14 26 25 55 25 65 0 10 10 28 22 39 18 16 23 33 24 83 2 76 3 81
9 76 2 -3 7 -30 11 -60z m-483 40 c29 -15 107 -90 107 -103 0 -6 -19 9 -42 31
-24 23 -56 47 -71 52 -35 14 -98 14 -155 1 -24 -6 -49 -7 -55 -3 -14 9 88 30
151 32 24 0 53 -4 65 -10z m1132 -7 c51 -14 13 -20 -60 -9 -98 14 -134 5 -194
-49 -28 -25 -51 -42 -51 -37 0 14 82 91 110 102 26 11 142 7 195 -7z m-1140
-31 c22 -10 51 -31 65 -46 24 -27 22 -27 -24 6 -47 33 -51 34 -140 33 l-91 -2
55 13 c76 18 89 17 135 -4z m1085 4 l55 -15 -77 5 c-81 6 -130 -6 -157 -38 -7
-10 -18 -17 -24 -17 -19 0 28 43 68 61 48 22 63 23 135 4z m-1078 -41 c24 -12
46 -34 35 -34 -2 0 -19 8 -38 17 -23 12 -53 17 -93 15 -66 -3 -70 3 -10 17 42
9 63 6 106 -15z m1053 11 l50 -15 -56 4 c-40 3 -68 -1 -98 -15 -50 -22 -55
-23 -45 -8 6 10 81 49 94 49 3 0 28 -7 55 -15z m-348 -97 c-3 -8 -6 -5 -6 6
-1 11 2 17 5 13 3 -3 4 -12 1 -19z m-12 -28 c13 -27 14 -32 2 -20 -8 8 -18 26
-22 40 -9 32 -2 25 20 -20z m-12 -29 c6 -9 2 -8 -11 3 -12 11 -22 29 -21 40 0
19 1 19 10 -3 5 -14 15 -32 22 -40z m61 44 c3 -8 1 -15 -4 -15 -6 0 -10 7 -10
15 0 8 2 15 4 15 2 0 6 -7 10 -15z m-468 -33 c-15 -15 -15 -15 -4 10 7 15 15
23 17 17 2 -6 -4 -18 -13 -27z m74 24 c0 -8 -16 -33 -35 -56 -19 -23 -35 -38
-35 -33 0 5 11 20 24 32 13 13 27 34 30 47 7 26 16 32 16 10z m270 -30 c0 -5
8 -19 18 -31 9 -12 2 -6 -15 12 -18 18 -33 41 -33 50 1 16 2 16 15 -1 8 -11
15 -24 15 -30z m20 9 c0 -5 -5 -3 -10 5 -5 8 -10 20 -10 25 0 6 5 3 10 -5 5
-8 10 -19 10 -25z m-394 -3 c-17 -16 -18 -16 -5 5 7 12 15 20 18 17 3 -2 -3
-12 -13 -22z m9 -82 c3 -5 1 -10 -4 -10 -6 0 -11 5 -11 10 0 6 2 10 4 10 3 0
8 -4 11 -10z m455 2 c0 -11 -22 -32 -32 -32 -5 0 -4 9 2 20 11 20 30 28 30 12z
m-482 -83 c11 0 13 -2 4 -6 -15 -6 -39 13 -53 41 -6 13 -2 11 11 -6 12 -16 29
-28 38 -29z m542 36 c0 -21 -36 -55 -57 -55 -13 0 -11 4 7 13 14 7 29 22 35
35 11 26 15 28 15 7z m-19 -65 c-13 -11 -37 -20 -55 -19 -30 1 -29 1 9 10 22
5 44 14 49 19 6 6 12 10 16 10 3 -1 -6 -10 -19 -20z m-482 -6 c10 -9 -45 -3
-59 6 -11 7 -5 8 20 4 19 -4 37 -8 39 -10z m458 -30 c-3 -3 -12 -4 -19 -1 -8
3 -5 6 6 6 11 1 17 -2 13 -5z m-359 -177 c6 -5 12 -18 12 -28 0 -16 -4 -17
-32 -7 -18 6 -46 20 -62 29 l-30 18 25 9 c23 9 57 1 87 -21z m300 15 c12 -8
-39 -42 -85 -57 -38 -11 -29 28 10 48 36 18 56 20 75 9z"/>
<path d="M1080 1402 c0 -5 7 -17 15 -28 15 -19 20 -8 9 20 -6 17 -24 22 -24 8z"/>
<path d="M1120 811 c0 -29 -4 -41 -15 -41 -31 0 -55 -42 -55 -97 0 -34 -4 -52
-10 -48 -5 3 -10 1 -10 -5 0 -16 27 -23 47 -11 11 6 13 11 5 11 -9 0 -12 15
-10 56 2 46 7 60 26 72 l22 14 0 -73 c0 -80 -4 -90 -37 -108 -31 -16 -38 -14
-78 20 -38 34 -44 26 -19 -27 33 -70 144 -105 214 -69 38 20 70 66 70 102 l0
28 -26 -32 c-30 -38 -64 -43 -94 -13 -17 17 -20 32 -19 90 1 39 5 73 10 76 5
2 17 -4 29 -16 23 -23 29 -105 8 -113 -10 -4 -10 -8 1 -16 10 -6 21 -6 35 2
19 10 19 12 4 15 -15 3 -18 14 -18 58 0 51 -2 56 -33 74 -28 17 -33 25 -29 49
2 16 -1 32 -7 35 -7 5 -11 -7 -11 -33z m39 -247 c26 -13 38 -14 57 -5 28 12
32 1 7 -21 -26 -23 -89 -38 -121 -28 -77 22 -117 59 -57 52 18 -2 42 1 52 7
24 14 25 14 62 -5z"/>
<path d="M1807 1558 l-48 -30 20 -32 c31 -48 46 -54 74 -28 13 12 29 22 35 22
18 0 14 31 -8 68 -11 17 -21 32 -22 31 -2 0 -25 -14 -51 -31z m58 -28 c3 -5 1
-10 -4 -10 -6 0 -11 5 -11 10 0 6 2 10 4 10 3 0 8 -4 11 -10z m-35 -31 c0 -5
-4 -9 -10 -9 -5 0 -10 7 -10 16 0 8 5 12 10 9 6 -3 10 -10 10 -16z"/>
<path d="M346 1515 c-4 -10 5 -19 28 -29 18 -8 37 -19 40 -25 12 -19 -18 -22
-56 -7 -32 14 -37 14 -42 0 -3 -9 -6 -17 -6 -19 0 -7 86 -31 102 -28 9 2 22
17 28 34 14 34 5 51 -41 75 -35 18 -45 18 -53 -1z"/>
<path d="M1880 1451 c-26 -10 -46 -24 -48 -34 -4 -21 2 -21 61 -1 26 9 47 22
47 29 0 22 -12 23 -60 6z"/>
</g>
</svg>
